<svg width="30" height="29" viewBox="0 0 30 29" fill="none" xmlns="http://www.w3.org/2000/svg">
<path d="M27.3907 14.5161C26.5055 14.5161 25.7813 15.2403 25.7813 16.1254V20.2292C25.7813 23.2869 23.287 25.7814 20.2292 25.7814H8.77085C5.71313 25.7814 3.21865 23.2869 3.21865 20.2292V8.77082C3.21865 5.71311 5.71313 3.21864 8.77085 3.21864H16.0772C16.9623 3.21864 17.6865 2.49445 17.6865 1.60932C17.6865 0.724195 16.9623 0 16.0772 0H8.77085C3.92678 0 0 3.94286 0 8.77082V20.2292C0 25.0732 3.94287 29 8.77085 29H20.2292C25.0733 29 29 25.0571 29 20.2292V16.1254C29 15.2403 28.2758 14.5161 27.3907 14.5161Z" fill="#5F7EED"/>
<path d="M27.3907 14.5161C26.5055 14.5161 25.7813 15.2403 25.7813 16.1254V20.2292C25.7813 23.2869 23.287 25.7814 20.2292 25.7814H8.77085C5.71313 25.7814 3.21865 23.2869 3.21865 20.2292V8.77082C3.21865 5.71311 5.71313 3.21864 8.77085 3.21864H16.0772C16.9623 3.21864 17.6865 2.49445 17.6865 1.60932C17.6865 0.724195 16.9623 0 16.0772 0H8.77085C3.92678 0 0 3.94286 0 8.77082V20.2292C0 25.0732 3.94287 29 8.77085 29H20.2292C25.0733 29 29 25.0571 29 20.2292V16.1254C29 15.2403 28.2758 14.5161 27.3907 14.5161Z" fill="#5F7EED"/>
<path d="M28.2927 2.2425L27.6959 1.64569C26.7378 0.687673 25.9525 0.200779 25.1673 0.043726C24.3035 -0.113327 23.5182 0.153663 22.8429 0.82899L12.0531 11.6814C11.5976 12.1368 11.3305 12.7493 11.2834 13.4404L11.0164 16.8327C10.9379 17.3981 11.1421 17.9477 11.5975 18.4032C11.9902 18.7958 12.4614 19 12.9326 19C12.9954 19 13.0425 19 13.1053 19L16.4664 18.7173C17.1888 18.6545 17.8327 18.3718 18.3039 17.9006L29.1251 7.06403C29.4392 6.74993 30.146 6.02745 29.9732 4.86526C29.8475 4.06429 29.345 3.27904 28.2927 2.22678V2.2425ZM16.1679 15.6077L14.2518 15.7647L14.4089 13.7858L24.8374 3.29473C24.9788 3.40467 25.1987 3.57742 25.4814 3.87582L26.0782 4.47262C26.3609 4.75532 26.5494 4.95945 26.6593 5.1165L16.1679 15.6233V15.6077Z" fill="#5F7EED"/>
<path d="M28.2927 2.2425L27.6959 1.64569C26.7378 0.687673 25.9525 0.200779 25.1673 0.043726C24.3035 -0.113327 23.5182 0.153663 22.8429 0.82899L12.0531 11.6814C11.5976 12.1368 11.3305 12.7493 11.2834 13.4404L11.0164 16.8327C10.9379 17.3981 11.1421 17.9477 11.5975 18.4032C11.9902 18.7958 12.4614 19 12.9326 19C12.9954 19 13.0425 19 13.1053 19L16.4664 18.7173C17.1888 18.6545 17.8327 18.3718 18.3039 17.9006L29.1251 7.06403C29.4392 6.74993 30.146 6.02745 29.9732 4.86526C29.8475 4.06429 29.345 3.27904 28.2927 2.22678V2.2425ZM16.1679 15.6077L14.2518 15.7647L14.4089 13.7858L24.8374 3.29473C24.9788 3.40467 25.1987 3.57742 25.4814 3.87582L26.0782 4.47262C26.3609 4.75532 26.5494 4.95945 26.6593 5.1165L16.1679 15.6233V15.6077Z" fill="#5F7EED"/>
</svg>
