<svg width="31" height="31" viewBox="0 0 31 31" fill="none" xmlns="http://www.w3.org/2000/svg">
<path d="M1.875 1.875V0.375H0.375V1.875H1.875ZM17.0643 19.1857C17.6501 19.7714 18.5999 19.7714 19.1857 19.1857C19.7714 18.5999 19.7714 17.6501 19.1857 17.0643L17.0643 19.1857ZM5 21.375C5 20.5466 4.32843 19.875 3.5 19.875C2.67157 19.875 2 20.5466 2 21.375H5ZM21.375 2C20.5466 2 19.875 2.67157 19.875 3.5C19.875 4.32843 20.5466 5 21.375 5V2ZM28.6213 4.37868L29.682 3.31802L29.682 3.31802L28.6213 4.37868ZM4.37868 28.6213L3.31802 29.682L3.31802 29.682L4.37868 28.6213ZM3.375 14.875V1.875H0.375V14.875H3.375ZM1.875 3.375H14.875V0.375H1.875V3.375ZM0.81434 2.93566L17.0643 19.1857L19.1857 17.0643L2.93566 0.81434L0.81434 2.93566ZM2 21.375V23.5H5V21.375H2ZM9.5 31H23.5V28H9.5V31ZM31 23.5V9.5H28V23.5H31ZM23.5 2H21.375V5H23.5V2ZM31 9.5C31 8.12819 31.0032 6.94844 30.8768 6.00831C30.7446 5.02504 30.4465 4.08251 29.682 3.31802L27.5607 5.43934C27.6748 5.55353 27.8161 5.75745 27.9035 6.40806C27.9968 7.10182 28 8.04338 28 9.5H31ZM23.5 5C24.9566 5 25.8982 5.00319 26.5919 5.09646C27.2426 5.18393 27.4465 5.32515 27.5607 5.43934L29.682 3.31802C28.9175 2.55353 27.975 2.25541 26.9917 2.12321C26.0516 1.99681 24.8718 2 23.5 2V5ZM23.5 31C24.8718 31 26.0516 31.0032 26.9917 30.8768C27.975 30.7446 28.9175 30.4465 29.682 29.682L27.5607 27.5607C27.4465 27.6748 27.2426 27.8161 26.5919 27.9035C25.8982 27.9968 24.9566 28 23.5 28V31ZM28 23.5C28 24.9566 27.9968 25.8982 27.9035 26.5919C27.8161 27.2426 27.6748 27.4465 27.5607 27.5607L29.682 29.682C30.4465 28.9175 30.7446 27.975 30.8768 26.9917C31.0032 26.0516 31 24.8718 31 23.5H28ZM2 23.5C2 24.8718 1.99681 26.0516 2.12321 26.9917C2.25541 27.975 2.55353 28.9175 3.31802 29.682L5.43934 27.5607C5.32515 27.4465 5.18393 27.2426 5.09646 26.5919C5.00319 25.8982 5 24.9566 5 23.5H2ZM9.5 28C8.04338 28 7.10182 27.9968 6.40806 27.9035C5.75745 27.8161 5.55353 27.6748 5.43934 27.5607L3.31802 29.682C4.08251 30.4465 5.02504 30.7446 6.00831 30.8768C6.94844 31.0032 8.12819 31 9.5 31V28Z" fill="#5F7EED"/>
</svg>
