<svg width="1918" height="662" viewBox="0 0 1918 662" fill="none" xmlns="http://www.w3.org/2000/svg">
<g clip-path="url(#clip0_866_1471)">
<path fill-rule="evenodd" clip-rule="evenodd" d="M-593.282 157.52L2497.14 333.071V715.52C1835.3 642.147 1331.4 605.461 985.432 605.461C639.467 605.461 113.23 642.147 -593.282 715.52L-586.857 484.659L-593.282 157.52Z" fill="#5F7EED"/>
<path d="M2734.87 504.631C2536.79 317.519 2379.03 223.034 2261.58 221.178C2085.4 218.391 1844.17 263.274 1707.86 218.391C1571.55 173.508 1349.99 169.306 1218.59 188C1087.19 206.695 896.134 170.378 784.718 116.963C673.3 63.5467 541.078 56.581 355.198 77.0451C169.321 97.5092 72.7979 59.7543 -0.0873141 0.884297C-72.9682 -57.9868 -148.046 -65.1281 -281.629 -54.2544C-415.211 -43.3796 -468.035 9.96109 -650.985 9.96109C-772.951 9.96109 -789.411 -4.62854 -700.365 -33.8068L-720.364 210.055L2734.87 504.631Z" fill="#5F7EED"/>
<path d="M2734.87 504.631C2536.79 317.519 2379.03 223.034 2261.58 221.178C2085.4 218.391 1844.17 263.274 1707.86 218.391C1571.55 173.508 1349.99 169.306 1218.59 188C1087.19 206.695 896.134 170.378 784.718 116.963C673.3 63.5467 541.078 56.581 355.198 77.0451C169.321 97.5092 72.7979 59.7543 -0.0873413 0.884296C-72.9683 -57.9868 -148.046 -65.1281 -281.629 -54.2544C-415.211 -43.3796 -468.035 9.96109 -650.985 9.96109C-772.951 9.96109 -789.411 -4.62854 -700.365 -33.8068L-720.364 210.055L2734.87 504.631Z" fill="url(#paint0_linear_866_1471)" fill-opacity="0.33"/>
</g>
<defs>
<linearGradient id="paint0_linear_866_1471" x1="173823" y1="-58.5067" x2="173823" y2="56255.3" gradientUnits="userSpaceOnUse">
<stop stop-color="white"/>
<stop offset="1" stop-color="white" stop-opacity="0"/>
</linearGradient>
<clipPath id="clip0_866_1471">
<rect width="3084" height="775" fill="white" transform="matrix(-1 0 0 1 2495 -59.48)"/>
</clipPath>
</defs>
</svg>
